# xmcd
#
# Track frame offsets: 
#        150
#        12191
#        24502
#        37601
#        49187
#        64245
#        75919
#        88830
#        101562
#        114116
#        128000
#        140648
#        153184
#        163920
#        174850
#        185137
#        196284
#        206724
#        218735
#
# Disc length: 3075 seconds
#
# Revision: 1
# Processed by: cddbd v1.5.2PL0 Copyright (c) Steve Scherf et al.
# Submitted via: ExactAudioCopy v1.0b4
#
DISCID=f50c0113
DTITLE=Snow, Hank - A Fool Such as I
DYEAR=2001
DGENRE=Country
TTITLE0=Marriage vows
TTITLE1=The golden rocket
TTITLE2=The only rose
TTITLE3=The star spangled waltz
TTITLE4=Nobody's child
TTITLE5=The law of love
TTITLE6=The anniversary of my broken heart
TTITLE7=I wonder where you are tonight
TTITLE8=The blind boy's dog
TTITLE9=I cried but my tears were too late
TTITLE10=I'm movin' on
TTITLE11=The rhumba boogie
TTITLE12=Unwanted sign upon your heart
TTITLE13=Music makin' mamma from Memphis
TTITLE14=The gold rush is over
TTITLE15=(Now and then there's) A fool such as I
TTITLE16=Lady's man
TTITLE17=The gal who invented kissin'
TTITLE18=I went to your wedding
EXTD=
EXTT0=
EXTT1=
EXTT2=
EXTT3=
EXTT4=
EXTT5=
EXTT6=
EXTT7=
EXTT8=
EXTT9=
EXTT10=
EXTT11=
EXTT12=
EXTT13=
EXTT14=
EXTT15=
EXTT16=
EXTT17=
EXTT18=
PLAYORDER=
